<!DOCTYPE svg PUBLIC "-//W3C//DTD SVG 20010904//EN" "http://www.w3.org/TR/2001/REC-SVG-20010904/DTD/svg10.dtd">
<svg version="1.0" xmlns="http://www.w3.org/2000/svg" width="512px" height="512px" viewBox="0 0 5120 5120" preserveAspectRatio="xMidYMid meet">
<g id="layer101" fill="#209cee" stroke="none">
 <path d="M2410 5114 c-632 -47 -1185 -290 -1624 -714 -376 -363 -628 -822 -731 -1335 -38 -190 -48 -296 -48 -505 0 -413 81 -764 263 -1135 346 -705 1008 -1213 1785 -1370 190 -38 296 -48 505 -48 413 0 763 81 1136 263 396 194 749 506 995 878 503 761 563 1717 159 2537 -253 515 -648 910 -1165 1166 -251 124 -528 207 -809 244 -123 16 -370 26 -466 19z"/>
 </g>
<g id="layer102" fill="#ffffff" stroke="none">
 <path d="M3822 3126 c2 -327 1 -592 -2 -590 -3 3 -75 218 -160 477 l-156 472 -139 0 -139 0 -122 -430 -123 -430 0 501 -1 502 -122 6 c-68 3 -230 9 -360 12 l-238 7 1 -269 c1 -398 24 -1883 29 -1887 9 -8 795 -34 800 -27 3 5 74 234 159 509 85 276 157 501 160 501 4 0 100 -243 215 -540 l209 -540 419 0 418 0 0 33 c0 76 -140 2250 -145 2256 -7 6 -476 29 -618 30 l-88 1 3 -594z"/>
 <path d="M915 2900 l8 -743 -99 6 c-55 4 -161 10 -237 13 l-138 7 5 -169 c3 -93 9 -257 12 -365 l6 -196 845 -8 c464 -4 847 -5 850 -2 3 3 2 154 -2 335 l-7 330 -229 7 c-126 4 -231 11 -234 15 -3 4 -30 324 -60 711 -31 387 -58 718 -60 735 l-5 31 -248 12 c-136 6 -285 14 -331 18 l-83 6 7 -743z"/>
 </g>

</svg>